<?xml version="1.0" encoding="UTF-8"?><svg xmlns="http://www.w3.org/2000/svg" xmlns:xlink="http://www.w3.org/1999/xlink" width="224.87999pt" zoomAndPan="magnify" viewBox="0 0 224.87999 225" height="225pt" preserveAspectRatio="xMidYMid meet" version="1.2"><defs><clipPath xml:id="clip1" id="clip1"><path d="M 74.4375 47.550781 L 147.148438 47.550781 L 147.148438 127 L 74.4375 127 Z M 74.4375 47.550781 "/></clipPath><clipPath xml:id="clip2" id="clip2"><path d="M 107 94 L 120 94 L 120 134.503906 L 107 134.503906 Z M 107 94 "/></clipPath></defs><g xml:id="surface1" id="surface1"><path style=" stroke:none;fill-rule:nonzero;fill:rgb(15.689087%,25.878906%,26.269531%);fill-opacity:1;" d="M 176.078125 91.195312 C 176.078125 92.246094 176.050781 93.296875 176 94.34375 C 175.949219 95.394531 175.871094 96.441406 175.769531 97.488281 C 175.667969 98.535156 175.539062 99.578125 175.386719 100.617188 C 175.230469 101.65625 175.050781 102.691406 174.847656 103.722656 C 174.644531 104.75 174.414062 105.777344 174.160156 106.796875 C 173.90625 107.816406 173.625 108.828125 173.324219 109.832031 C 173.019531 110.839844 172.691406 111.835938 172.339844 112.828125 C 171.984375 113.816406 171.609375 114.796875 171.207031 115.765625 C 170.808594 116.738281 170.382812 117.699219 169.9375 118.648438 C 169.488281 119.597656 169.019531 120.535156 168.523438 121.464844 C 168.03125 122.390625 167.515625 123.304688 166.976562 124.207031 C 166.4375 125.105469 165.878906 125.992188 165.296875 126.867188 C 164.714844 127.742188 164.113281 128.601562 163.488281 129.445312 C 162.867188 130.289062 162.222656 131.117188 161.558594 131.929688 C 160.894531 132.742188 160.210938 133.535156 159.507812 134.316406 C 158.804688 135.09375 158.082031 135.855469 157.34375 136.597656 C 156.601562 137.339844 155.84375 138.066406 155.070312 138.769531 C 154.292969 139.476562 153.5 140.164062 152.691406 140.828125 C 151.882812 141.496094 151.058594 142.144531 150.21875 142.769531 C 149.375 143.394531 148.519531 144 147.648438 144.582031 C 146.78125 145.167969 145.894531 145.730469 144.996094 146.269531 C 144.101562 146.808594 143.1875 147.328125 142.265625 147.824219 C 141.34375 148.320312 140.40625 148.789062 139.460938 149.238281 C 138.515625 149.6875 137.558594 150.113281 136.589844 150.515625 C 135.625 150.917969 134.648438 151.296875 133.664062 151.652344 C 132.675781 152.003906 131.683594 152.335938 130.679688 152.640625 C 129.679688 152.945312 128.671875 153.226562 127.65625 153.480469 C 126.640625 153.734375 125.621094 153.964844 124.59375 154.171875 C 123.566406 154.375 122.535156 154.554688 121.5 154.710938 C 120.464844 154.863281 119.425781 154.992188 118.382812 155.097656 C 117.339844 155.199219 116.296875 155.277344 115.253906 155.328125 C 114.207031 155.378906 113.160156 155.40625 112.113281 155.40625 C 111.066406 155.40625 110.019531 155.378906 108.976562 155.328125 C 107.929688 155.277344 106.886719 155.199219 105.84375 155.097656 C 104.804688 154.992188 103.765625 154.863281 102.730469 154.710938 C 101.691406 154.554688 100.660156 154.375 99.636719 154.171875 C 98.609375 153.964844 97.585938 153.734375 96.570312 153.480469 C 95.558594 153.226562 94.546875 152.945312 93.546875 152.640625 C 92.542969 152.335938 91.550781 152.003906 90.566406 151.652344 C 89.578125 151.296875 88.601562 150.917969 87.636719 150.515625 C 86.667969 150.113281 85.710938 149.6875 84.765625 149.238281 C 83.820312 148.789062 82.886719 148.320312 81.960938 147.824219 C 81.039062 147.328125 80.128906 146.808594 79.230469 146.269531 C 78.332031 145.730469 77.449219 145.167969 76.578125 144.582031 C 75.707031 144 74.851562 143.394531 74.011719 142.769531 C 73.171875 142.144531 72.34375 141.496094 71.535156 140.828125 C 70.726562 140.164062 69.933594 139.476562 69.160156 138.769531 C 68.382812 138.066406 67.625 137.339844 66.886719 136.597656 C 66.144531 135.855469 65.421875 135.09375 64.71875 134.316406 C 64.015625 133.535156 63.332031 132.742188 62.667969 131.929688 C 62.003906 131.117188 61.363281 130.289062 60.738281 129.445312 C 60.113281 128.601562 59.511719 127.742188 58.929688 126.867188 C 58.347656 125.992188 57.789062 125.105469 57.25 124.207031 C 56.710938 123.304688 56.195312 122.390625 55.703125 121.464844 C 55.210938 120.535156 54.738281 119.597656 54.292969 118.648438 C 53.84375 117.699219 53.421875 116.738281 53.019531 115.765625 C 52.617188 114.796875 52.242188 113.816406 51.890625 112.828125 C 51.539062 111.835938 51.207031 110.839844 50.90625 109.832031 C 50.601562 108.828125 50.320312 107.816406 50.066406 106.796875 C 49.8125 105.777344 49.585938 104.75 49.378906 103.722656 C 49.175781 102.691406 48.996094 101.65625 48.84375 100.617188 C 48.691406 99.578125 48.5625 98.535156 48.457031 97.488281 C 48.355469 96.441406 48.277344 95.394531 48.226562 94.34375 C 48.175781 93.296875 48.152344 92.246094 48.152344 91.195312 C 48.152344 90.144531 48.175781 89.09375 48.226562 88.042969 C 48.277344 86.992188 48.355469 85.945312 48.457031 84.902344 C 48.5625 83.855469 48.691406 82.8125 48.84375 81.773438 C 48.996094 80.734375 49.175781 79.699219 49.378906 78.667969 C 49.585938 77.636719 49.8125 76.613281 50.066406 75.59375 C 50.320312 74.574219 50.601562 73.558594 50.90625 72.554688 C 51.207031 71.550781 51.539062 70.550781 51.890625 69.5625 C 52.242188 68.574219 52.617188 67.59375 53.019531 66.621094 C 53.421875 65.652344 53.84375 64.691406 54.292969 63.742188 C 54.738281 62.789062 55.210938 61.851562 55.703125 60.925781 C 56.195312 60 56.710938 59.085938 57.25 58.183594 C 57.789062 57.28125 58.347656 56.394531 58.929688 55.519531 C 59.511719 54.648438 60.113281 53.789062 60.738281 52.945312 C 61.363281 52.101562 62.003906 51.273438 62.667969 50.460938 C 63.332031 49.648438 64.015625 48.851562 64.71875 48.074219 C 65.421875 47.292969 66.144531 46.535156 66.886719 45.789062 C 67.625 45.046875 68.382812 44.324219 69.160156 43.617188 C 69.933594 42.910156 70.726562 42.226562 71.535156 41.558594 C 72.34375 40.890625 73.171875 40.246094 74.011719 39.621094 C 74.851562 38.992188 75.707031 38.390625 76.578125 37.804688 C 77.449219 37.222656 78.332031 36.660156 79.230469 36.117188 C 80.128906 35.578125 81.039062 35.0625 81.960938 34.566406 C 82.886719 34.070312 83.820312 33.597656 84.765625 33.148438 C 85.710938 32.699219 86.667969 32.273438 87.636719 31.871094 C 88.601562 31.46875 89.578125 31.089844 90.566406 30.738281 C 91.550781 30.382812 92.542969 30.054688 93.546875 29.75 C 94.546875 29.441406 95.558594 29.164062 96.570312 28.90625 C 97.585938 28.652344 98.609375 28.421875 99.636719 28.21875 C 100.660156 28.011719 101.691406 27.832031 102.730469 27.679688 C 103.765625 27.523438 104.804688 27.394531 105.84375 27.292969 C 106.886719 27.191406 107.929688 27.113281 108.976562 27.0625 C 110.019531 27.007812 111.066406 26.984375 112.113281 26.984375 C 113.160156 26.984375 114.207031 27.007812 115.253906 27.0625 C 116.296875 27.113281 117.339844 27.191406 118.382812 27.292969 C 119.425781 27.394531 120.464844 27.523438 121.5 27.679688 C 122.535156 27.832031 123.566406 28.011719 124.59375 28.21875 C 125.621094 28.421875 126.640625 28.652344 127.65625 28.90625 C 128.671875 29.164062 129.679688 29.441406 130.679688 29.75 C 131.683594 30.054688 132.675781 30.382812 133.664062 30.738281 C 134.648438 31.089844 135.625 31.46875 136.589844 31.871094 C 137.558594 32.273438 138.515625 32.699219 139.460938 33.148438 C 140.40625 33.597656 141.34375 34.070312 142.265625 34.566406 C 143.1875 35.0625 144.101562 35.578125 144.996094 36.117188 C 145.894531 36.660156 146.78125 37.222656 147.648438 37.804688 C 148.519531 38.390625 149.375 38.992188 150.21875 39.621094 C 151.058594 40.246094 151.882812 40.890625 152.691406 41.558594 C 153.5 42.226562 154.292969 42.910156 155.070312 43.617188 C 155.84375 44.324219 156.601562 45.046875 157.34375 45.789062 C 158.082031 46.535156 158.804688 47.292969 159.507812 48.074219 C 160.210938 48.851562 160.894531 49.648438 161.558594 50.460938 C 162.222656 51.273438 162.867188 52.101562 163.488281 52.945312 C 164.113281 53.789062 164.714844 54.648438 165.296875 55.519531 C 165.878906 56.394531 166.4375 57.28125 166.976562 58.183594 C 167.515625 59.085938 168.03125 60 168.523438 60.925781 C 169.019531 61.851562 169.488281 62.789062 169.9375 63.742188 C 170.382812 64.691406 170.808594 65.652344 171.207031 66.621094 C 171.609375 67.59375 171.984375 68.574219 172.339844 69.5625 C 172.691406 70.550781 173.019531 71.550781 173.324219 72.554688 C 173.625 73.558594 173.90625 74.574219 174.160156 75.59375 C 174.414062 76.613281 174.644531 77.636719 174.847656 78.667969 C 175.050781 79.699219 175.230469 80.734375 175.386719 81.773438 C 175.539062 82.8125 175.667969 83.855469 175.769531 84.902344 C 175.871094 85.945312 175.949219 86.992188 176 88.042969 C 176.050781 89.09375 176.078125 90.144531 176.078125 91.195312 Z M 176.078125 91.195312 "/><path style=" stroke:none;fill-rule:nonzero;fill:rgb(100%,100%,100%);fill-opacity:1;" d="M 112.113281 156.597656 C 76.191406 156.597656 46.964844 127.257812 46.964844 91.195312 C 46.964844 55.128906 76.191406 25.789062 112.113281 25.789062 C 148.039062 25.789062 177.265625 55.128906 177.265625 91.195312 C 177.265625 127.257812 148.039062 156.597656 112.113281 156.597656 Z M 112.113281 28.175781 C 77.5 28.175781 49.339844 56.445312 49.339844 91.195312 C 49.339844 125.941406 77.5 154.210938 112.113281 154.210938 C 146.730469 154.210938 174.890625 125.941406 174.890625 91.195312 C 174.890625 56.445312 146.730469 28.175781 112.113281 28.175781 Z M 112.113281 28.175781 "/><g clip-rule="nonzero" clip-path="url(#clip1)"><path style=" stroke:none;fill-rule:nonzero;fill:rgb(100%,100%,100%);fill-opacity:1;" d="M 138.898438 99.089844 C 139.332031 98.765625 140.738281 97.246094 142.796875 97.355469 C 141.605469 94.425781 134.242188 94.96875 131.75 96.8125 C 129.257812 98.65625 128.394531 98.765625 130.777344 96.703125 C 132.28125 95.402344 134.089844 92.199219 133.714844 90.070312 C 135.65625 88.90625 137.15625 87.597656 137.921875 86.402344 C 133.703125 87.382812 132.183594 83.800781 128.394531 84.777344 C 132.726562 81.742188 138.789062 78.273438 142.363281 81.417969 C 140.199219 75.019531 132.832031 72.851562 128.613281 76.105469 C 131.859375 71.445312 128.828125 69.597656 127.960938 69.167969 C 128.71875 71.984375 122.332031 73.394531 121.570312 77.082031 C 120.164062 70.683594 130.34375 68.734375 126.554688 55.941406 C 125.035156 62.121094 123.628906 57.566406 121.136719 62.769531 C 120.488281 51.820312 113.558594 52.90625 114.53125 46.832031 C 111.5 52.257812 110.417969 57.675781 112.042969 61.25 C 108.035156 58.542969 107.925781 57.566406 107.820312 56.699219 C 104.894531 64.179688 104.789062 70.25 109.121094 75.5625 C 104.246094 70.46875 98.828125 71.226562 97.75 68.40625 C 96.664062 72.09375 98.398438 73.828125 98.9375 74.695312 C 91.683594 72.746094 89.195312 75.019531 84.859375 79.035156 C 92.765625 78.164062 90.167969 81.742188 95.796875 80.984375 C 92.226562 85.644531 93.417969 88.25 94.390625 88.574219 C 94.484375 84.566406 97.691406 84.40625 100.3125 86.707031 C 99.160156 88.160156 98.289062 90.136719 98.074219 93.558594 C 97.207031 92.476562 92.007812 88.03125 84.753906 92.042969 C 85.402344 92.367188 86.269531 93.234375 88.648438 94.859375 C 80.203125 94.316406 78.90625 100.929688 74.464844 104.402344 C 80.421875 109.496094 83.671875 106.027344 89.085938 104.074219 C 87.566406 104.941406 84.535156 108.519531 85.945312 113.179688 C 89.085938 106.136719 92.875 110.363281 99.046875 107.652344 C 97.421875 108.628906 95.367188 113.179688 96.664062 116.652344 C 97.316406 116.109375 97.964844 115.785156 100.128906 113.941406 C 98.507812 115.894531 97.316406 120.769531 102.1875 126.300781 C 101.539062 120.335938 105.652344 118.167969 106.300781 116.542969 C 106.195312 117.734375 106.414062 118.386719 107.496094 119.46875 C 113.015625 104.617188 100.457031 100.605469 97.421875 100.28125 C 94.390625 99.953125 95.574219 98.375 98.074219 98.765625 C 104.351562 99.738281 104.246094 103.859375 107.925781 100.605469 C 109.984375 98.785156 109.945312 94.898438 108.75 91.046875 C 111.246094 91.136719 113.632812 90.5 114.75 89.117188 C 116.351562 87.121094 116.898438 84.753906 116.257812 81.136719 C 115.589844 77.375 117.222656 76.539062 117.988281 80.378906 C 118.902344 84.9375 117.808594 86.757812 117.023438 89.222656 C 116.351562 91.320312 116.09375 93.300781 121.113281 93.457031 C 119.835938 95.101562 118.90625 96.886719 118.429688 98.4375 C 117.132812 102.664062 119.730469 103.207031 122.871094 101.90625 C 126.011719 100.605469 128.828125 100.496094 128.828125 100.496094 C 130.992188 100.496094 132.398438 101.488281 129.152344 101.691406 C 127.421875 101.800781 125.6875 101.800781 122.113281 103.96875 C 118.539062 106.136719 119.730469 109.277344 121.03125 110.363281 C 122.332031 111.445312 123.738281 112.207031 121.894531 117.84375 C 124.820312 117.734375 128.71875 115.132812 128.609375 110.144531 C 130.128906 112.640625 133.375 112.421875 135.214844 111.773438 C 137.054688 111.121094 139.875 108.738281 141.820312 110.6875 C 141.929688 109.496094 142.796875 108.738281 139.113281 106.136719 C 140.632812 105.8125 143.878906 105.8125 146.261719 110.796875 C 148.539062 107.21875 146.371094 99.953125 138.898438 99.089844 Z M 138.898438 99.089844 "/></g><g clip-rule="nonzero" clip-path="url(#clip2)"><path style=" stroke:none;fill-rule:nonzero;fill:rgb(100%,100%,100%);fill-opacity:1;" d="M 114.859375 134.472656 C 122.964844 134.472656 117.675781 134.925781 116.699219 130.246094 C 115.875 126.308594 112.519531 107.632812 119.667969 103.621094 C 116.757812 102.988281 114.96875 105.269531 114.96875 105.269531 C 114.96875 105.269531 114.066406 99.898438 116.082031 94.886719 C 116.082031 94.886719 112.257812 96.835938 112.042969 105.050781 C 109.984375 103.535156 108.253906 102.882812 107.601562 102.992188 C 111.933594 108.410156 111.433594 120.480469 110.636719 128.945312 C 110.015625 135.539062 103.539062 134.472656 114.859375 134.472656 Z M 114.859375 134.472656 "/></g></g></svg>